<svg id="Capa_1" enable-background="new 0 0 512 512" height="512" viewBox="0 0 512 512" width="512" xmlns="http://www.w3.org/2000/svg"><path d="m105.887 7.581h300.225c54.293 0 98.306 44.013 98.306 98.306v300.225c0 54.293-44.013 98.306-98.306 98.306h-300.225c-54.293 0-98.306-44.013-98.306-98.306v-300.225c0-54.292 44.014-98.306 98.306-98.306z" fill="#fff"/><g fill="#fff"><path d="m397.208 217.324c-30.546-7.88-62.432 9.095-72.988 38.823-4.108 11.567-4.546 23.485-1.954 34.53 9.238 39.356 7.849 80.458-4.296 119.016-6.837 21.709 5.218 44.85 26.927 51.687 21.709 6.837 44.85-5.218 51.687-26.927l43.879-139.313c10.504-33.348-8.959-68.969-43.255-77.816z"/><path d="m114.792 217.324c30.546-7.88 62.432 9.095 72.988 38.823 4.108 11.567 4.546 23.485 1.954 34.53-9.238 39.356-7.849 80.458 4.296 119.016 6.838 21.709-5.218 44.85-26.926 51.687-21.709 6.837-44.85-5.218-51.687-26.927l-43.88-139.313c-10.504-33.348 8.958-68.969 43.255-77.816z"/><path d="m392.486 98.205c-13.07 23.785-26.151 47.561-39.221 71.346-4.438 8.067-14.304 11.504-22.734 7.794-21.37-9.421-44.094-14.607-66.949-15.537-5.054-.212-10.109-.212-15.163 0-22.856.93-45.58 6.116-66.949 15.537-8.431 3.71-18.297.273-22.734-7.794-13.07-23.786-26.151-47.561-39.221-71.346-4.943-8.987-1.344-20.349 7.935-24.726 81.384-38.332 175.718-38.332 257.102 0 9.279 4.377 12.877 15.739 7.934 24.726z"/></g><path d="m201.282 169.935c-6.712 2.072-13.323 4.549-19.813 7.41-8.431 3.71-18.297.273-22.734-7.794-13.07-23.786-26.151-47.561-39.221-71.346-4.943-8.987-1.344-20.349 7.935-24.726 6.48-3.053 13.03-5.863 19.661-8.42.01 4.064 1.001 8.178 3.103 11.989 17.023 30.962 34.036 61.925 51.069 92.887z" fill="#fff"/><path d="m374.968 459.294c-5.448 2.598-11.483 4.003-17.67 4.003-4.104 0-8.279-.617-12.403-1.921-17.589-5.539-28.84-21.784-28.84-39.302 0-4.094.617-8.269 1.911-12.383 12.151-38.554 13.535-79.656 4.296-119.018-2.588-11.039-2.153-22.957 1.961-34.521 10.553-29.729 42.436-46.712 72.984-38.827.849.222 1.688.455 2.527.708-18.115 5.489-33.419 19.237-40.131 38.12-4.114 11.564-4.549 23.482-1.961 34.521 9.239 39.363 7.854 80.464-4.296 119.018-1.294 4.114-1.911 8.289-1.911 12.383 0 15.688 9.017 30.345 23.533 37.219z" fill="#fff"/><path d="m172.412 459.294c-1.698.809-3.467 1.506-5.307 2.082-4.124 1.304-8.299 1.921-12.403 1.921-17.508 0-33.742-11.261-39.282-28.84l-43.882-139.317c-10.503-33.348 8.956-68.971 43.255-77.816 11.14-2.881 22.461-2.446 32.853.708-32.721 9.906-50.967 44.589-40.727 77.108l43.881 139.317c3.578 11.362 11.635 20.086 21.612 24.837z" fill="#fff"/><path d="m490.651 456.302c-17.134 28.809-48.582 48.117-84.538 48.117h-300.226c-54.293 0-98.306-44.013-98.306-98.306v-300.226c0-36.391 19.772-68.152 49.148-85.145-8.744 14.688-13.768 31.852-13.768 50.189v300.225c0 54.293 44.013 98.306 98.306 98.306h300.225c17.913.001 34.703-4.79 49.159-13.16z" fill="#fff"/><path d="m406.113 0h-300.226c-58.386 0-105.887 47.501-105.887 105.887v300.225c0 58.387 47.501 105.888 105.887 105.888h239.213c4.188 0 7.581-3.394 7.581-7.581s-3.394-7.581-7.581-7.581h-239.213c-50.026 0-90.725-40.699-90.725-90.725v-300.226c0-50.026 40.699-90.725 90.725-90.725h300.225c50.026 0 90.725 40.699 90.725 90.725v300.225c0 50.026-40.699 90.725-90.725 90.725h-30.687c-4.188 0-7.581 3.394-7.581 7.581s3.394 7.581 7.581 7.581h30.687c58.388.001 105.888-47.5 105.888-105.886v-300.226c0-58.386-47.5-105.887-105.887-105.887z"/><path d="m379.819 465.345c11.559-6.021 20.08-16.184 23.995-28.615l43.88-139.313c11.775-37.385-9.897-77.453-48.593-87.435-49.056-12.658-96.157 31.561-84.215 82.426 8.961 38.174 7.527 77.943-4.146 115.006-12.996 41.251 30.458 78.052 69.079 57.931zm-54.618-53.375c12.492-39.66 14.029-82.201 4.446-123.027-7.965-33.911 18.16-65.948 52.512-65.948 35.86 0 62.041 35.038 51.072 69.867l-43.88 139.313c-2.699 8.568-8.572 15.572-16.538 19.722-26.31 13.704-56.652-11.228-47.612-39.927z"/><path d="m154.712 455.713c-14.744 0-27.63-9.459-32.065-23.537l-32.87-104.359c-1.258-3.994-5.517-6.21-9.508-4.954-3.994 1.258-6.212 5.515-4.954 9.509l32.869 104.359c6.433 20.423 25.13 34.145 46.527 34.145 33.017 0 56.465-31.977 46.549-63.461-11.678-37.077-13.117-76.783-4.147-115.005 11.925-50.784-34.801-95.175-84.216-82.426-30.494 7.867-51.792 35.303-51.792 66.72 0 11.849 2.838 19.569 5.098 26.744 1.258 3.993 5.515 6.21 9.509 4.954 3.994-1.258 6.212-5.515 4.954-9.509-2.184-6.935-4.398-12.822-4.398-22.189 0-29.728 24.26-53.722 53.665-53.722 34.966 0 60.244 32.645 52.418 65.963-9.303 39.638-8.425 82.163 4.446 123.026 6.885 21.856-9.494 43.742-32.085 43.742z"/><path d="m327.476 184.281c12.002 5.294 26.088.458 32.433-11.08l9.387-17.074c2.017-3.669.678-8.279-2.991-10.296-3.671-2.016-8.279-.679-10.296 2.991l-9.387 17.074c-2.553 4.643-8.205 6.639-13.03 4.511-22.273-9.819-45.791-15.237-70.011-16.175v-69.067c0-4.187-3.394-7.581-7.581-7.581s-7.581 3.394-7.581 7.581v69.067c-24.22.937-47.738 6.356-70.011 16.175-4.838 2.133-10.484.12-13.03-4.511l-39.221-71.342c-2.802-5.098-.9-11.66 4.524-14.214 79.284-37.348 171.431-37.311 250.638 0 5.421 2.554 7.328 9.115 4.524 14.214l-15.225 27.693c-2.017 3.669-.678 8.279 2.991 10.296 3.67 2.018 8.278.678 10.296-2.991l15.225-27.692c7.171-13.041 1.606-29.133-11.349-35.237-83.375-39.273-180.267-39.236-263.561 0-12.954 6.102-18.521 22.193-11.349 35.236l39.221 71.342c6.336 11.524 20.409 16.38 32.433 11.08 45.517-20.066 97.347-20.104 142.951 0z"/></svg>