<?xml version="1.0" encoding="iso-8859-1"?>
<!-- Generator: Adobe Illustrator 19.0.0, SVG Export Plug-In . SVG Version: 6.00 Build 0)  -->
<svg version="1.1" id="Capa_1" xmlns="http://www.w3.org/2000/svg" xmlns:xlink="http://www.w3.org/1999/xlink" x="0px" y="0px"
	 viewBox="0 0 512 512" style="enable-background:new 0 0 512 512;" xml:space="preserve">
<g>
	<g>
		<path d="M223.937,32.063h-48.094c-4.151,0-7.515,3.364-7.515,7.515c0,4.151,3.364,7.515,7.515,7.515h48.094
			c4.151,0,7.515-3.364,7.515-7.515C231.452,35.426,228.089,32.063,223.937,32.063z"/>
	</g>
</g>
<g>
	<g>
		<path d="M199.89,448.877c-12.983,0-23.546,10.563-23.546,23.546c0,12.983,10.563,23.546,23.546,23.546
			c12.983,0,23.546-10.563,23.546-23.546C223.436,459.439,212.874,448.877,199.89,448.877z M199.89,480.939
			c-4.696,0-8.517-3.82-8.517-8.517c0-4.696,3.82-8.517,8.517-8.517s8.517,3.82,8.517,8.517
			C208.407,477.119,204.587,480.939,199.89,480.939z"/>
	</g>
</g>
<g>
	<g>
		<path d="M416.441,141.036c-18.456-14.57-40.609-25.117-64.754-31.1V39.577C351.687,17.755,333.932,0,312.11,0H87.671
			C65.849,0,48.094,17.755,48.094,39.577v88.507c0,4.151,3.364,7.515,7.515,7.515c4.151,0,7.515-3.364,7.515-7.515V71.139h273.534
			v35.709c-10.6-1.742-21.496-2.644-32.564-2.644c-42.362,0-82.262,13.081-112.347,36.833
			c-30.608,24.164-47.465,56.452-47.465,90.917c0,37.884,20.512,73.168,56.475,97.5l-8.26,45.438
			c-1.131,6.215,5.82,11.053,11.259,7.788l49.344-29.607c16.392,4.401,33.529,6.63,50.994,6.63c11.068,0,21.964-0.901,32.564-2.644
			v67.771H63.123V164.152c0-4.151-3.364-7.515-7.515-7.515c-4.151,0-7.515,3.364-7.515,7.515v308.271
			c0,21.823,17.755,39.577,39.577,39.577H312.11c21.823,0,39.577-17.755,39.577-39.577V353.969
			c24.145-5.983,46.298-16.529,64.754-31.1c30.608-24.164,47.465-56.452,47.465-90.917
			C463.906,197.489,447.049,165.201,416.441,141.036z M336.658,472.423c0,13.536-11.011,24.548-24.548,24.548H87.671
			c-13.536,0-24.548-11.011-24.548-24.548v-32.564h273.534V472.423z M63.123,56.11V39.577c0-13.536,11.011-24.548,24.548-24.548
			H312.11c13.536,0,24.548,11.011,24.548,24.548V56.11H63.123z M304.094,344.673c-17.191,0-34.018-2.331-50.017-6.927
			c-2.003-0.576-4.154-0.295-5.942,0.778l-37.885,22.731l6.185-34.017c0.548-3.016-0.79-6.062-3.381-7.699
			c-34.155-21.568-53.744-53.493-53.744-87.585c0-62.154,64.949-112.72,144.783-112.72s144.783,50.566,144.783,112.72
			S383.928,344.673,304.094,344.673z"/>
	</g>
</g>
<g>
	<g>
		<path d="M344.172,168.329c-1.205,0-2.411,0.056-3.611,0.165c-6.093-14.374-20.44-24.212-36.467-24.212
			s-30.374,9.838-36.467,24.212c-1.199-0.109-2.405-0.165-3.611-0.165c-21.823,0-39.577,17.755-39.577,39.577
			c0,17.941,11.972,33.319,28.723,38.065l3.353,58.552c0.227,3.977,3.519,7.085,7.502,7.085h80.157c3.984,0,7.275-3.109,7.502-7.085
			l3.353-58.552c16.751-4.746,28.723-20.124,28.723-38.065C383.75,186.083,365.995,168.329,344.172,168.329z M337.075,296.579
			h-65.963l-0.516-9.018h66.995L337.075,296.579z M347.388,232.224c-8.441,1.097-16.951-2.262-22.315-8.891
			c-2.609-3.226-7.34-3.728-10.569-1.114c-3.226,2.61-3.725,7.342-1.114,10.569c6.653,8.222,16.144,13.353,26.508,14.465
			l-1.447,25.28H327.64v-8.517c0-4.151-3.364-7.515-7.515-7.515s-7.515,3.364-7.515,7.515v8.517h-17.033v-8.517
			c0-4.151-3.364-7.515-7.515-7.515s-7.515,3.364-7.515,7.515v8.517h-10.812l-1.447-25.281c9.758-1.061,18.844-5.727,25.409-13.165
			c2.746-3.111,2.45-7.861-0.661-10.607c-3.113-2.746-7.86-2.45-10.607,0.661c-5.302,6.008-13.366,9.069-21.317,8.133
			c-12.345-1.451-21.645-11.911-21.645-24.368c0-13.536,11.012-24.548,24.548-24.548c2.255,0,4.51,0.314,6.699,0.934
			c4.117,1.162,8.489-1.47,9.391-5.644c2.42-11.205,12.508-19.337,23.988-19.337s21.568,8.132,23.988,19.337
			c0.903,4.173,5.274,6.806,9.391,5.644c2.189-0.619,4.444-0.934,6.699-0.934c13.536,0,24.548,11.012,24.548,24.548
			C368.72,220.255,359.574,230.631,347.388,232.224z"/>
	</g>
</g>
<g>
</g>
<g>
</g>
<g>
</g>
<g>
</g>
<g>
</g>
<g>
</g>
<g>
</g>
<g>
</g>
<g>
</g>
<g>
</g>
<g>
</g>
<g>
</g>
<g>
</g>
<g>
</g>
<g>
</g>
</svg>
